<svg width="304" height="42" viewBox="0 0 304 42" fill="none" xmlns="http://www.w3.org/2000/svg">
<g opacity="0.6">
<path d="M36.5514 35.7652V40.753H0V35.7652H15.3572V6.06478H0V1.07692H36.5514V6.06478H20.9108V35.7652H36.5514Z" fill="black"/>
<path d="M49.494 4.76113V40.753H43.9404V1.07692H53.6308L79.3584 37.0688V1.07692H84.8553V40.753H75.1082L49.494 4.76113Z" fill="black"/>
<path d="M132.021 29.8138C132.021 31.5897 131.662 33.2335 130.944 34.7449C130.264 36.2186 129.112 37.5034 127.487 38.5992C125.863 39.6572 123.71 40.4885 121.027 41.0931C118.383 41.6977 115.077 42 111.11 42C107.143 42 103.894 41.5466 101.363 40.6397C98.8697 39.7328 96.8863 38.5803 95.4129 37.1822C93.9773 35.7463 92.9384 34.1781 92.2961 32.4777C91.6917 30.7395 91.3139 29.0391 91.1628 27.3765H97.1696C97.3963 30.4372 98.6808 32.8178 101.023 34.5182C103.403 36.1808 106.822 37.0121 111.28 37.0121C115.889 37.0121 119.516 36.4831 122.161 35.4251C124.843 34.3293 126.203 32.5911 126.241 30.2105C126.279 27.83 125.107 26.1296 122.727 25.1093C120.347 24.0891 116.645 23.4278 111.62 23.1255C108.296 23.0121 105.406 22.7854 102.95 22.4453C100.532 22.1053 98.5297 21.5385 96.943 20.7449C95.3563 19.9514 94.1851 18.8745 93.4295 17.5142C92.6739 16.1538 92.2961 14.3779 92.2961 12.1862C92.2961 10.5614 92.6739 9.01215 93.4295 7.53846C94.1851 6.06478 95.3751 4.78003 96.9996 3.68421C98.6619 2.55061 100.778 1.66262 103.347 1.02024C105.916 0.340081 109.013 0 112.64 0C116.531 0 119.686 0.434548 122.104 1.30364C124.56 2.17274 126.486 3.28745 127.884 4.64777C129.32 6.0081 130.321 7.53846 130.888 9.23887C131.492 10.9393 131.87 12.6208 132.021 14.2834H126.014C125.863 12.5074 125.428 11.0337 124.711 9.86235C123.993 8.65317 123.029 7.68961 121.821 6.97166C120.649 6.25371 119.27 5.74359 117.684 5.4413C116.097 5.139 114.359 4.98785 112.47 4.98785C110.317 4.98785 108.352 5.12011 106.577 5.38462C104.839 5.64912 103.328 6.06478 102.043 6.63158C100.796 7.16059 99.8142 7.85965 99.0964 8.72875C98.4164 9.56005 98.0763 10.5803 98.0763 11.7895C98.0763 12.9609 98.3408 13.9433 98.8697 14.7368C99.4364 15.4926 100.305 16.1161 101.476 16.6073C102.648 17.0607 104.14 17.4197 105.953 17.6842C107.804 17.9109 109.977 18.0999 112.47 18.251C115.946 18.4399 118.912 18.7611 121.367 19.2146C123.823 19.6302 125.844 20.2726 127.431 21.1417C129.017 22.0108 130.17 23.1444 130.888 24.5425C131.643 25.9406 132.021 27.6977 132.021 29.8138Z" fill="black"/>
<path d="M158.585 6.06478V40.753H153.031V6.06478H135.407V1.07692H176.266V6.06478H158.585Z" fill="black"/>
<path d="M190.021 28.7368L184.128 40.753H177.951L197.502 1.07692H206.909L226.459 40.753H220.226L214.332 28.7368H190.021ZM192.515 23.749H211.839L202.205 4.13765L192.515 23.749Z" fill="black"/>
<path d="M264.653 35.7652V40.753H230.992V1.07692H236.545V35.7652H264.653Z" fill="black"/>
<path d="M304 35.7652V40.753H270.339V1.07692H275.892V35.7652H304Z" fill="black"/>
</g>
</svg>
